<?xml version="1.0" encoding="UTF-8"?><svg id="Calque_2" xmlns="http://www.w3.org/2000/svg" viewBox="0 0 244.94 244.94"><defs><style>.cls-1,.cls-2,.cls-3{fill:none;}.cls-2{stroke-width:4px;}.cls-2,.cls-4,.cls-3{stroke:#ed6b1e;}.cls-4{fill:#ed6b1e;stroke-miterlimit:10;stroke-width:.25px;}.cls-5{fill:#888788;}</style></defs><g id="Calque_3"><g id="Calque_4"><path class="cls-4" d="M122.8,86.71v8.26c4.86-.18,9.69,1.27,13.88,3.65l3.98-6.79c-.25-.69-.88-.97-1.24-1.67-2.18-4.21,2.94-8.4,6.67-5.29,3.14,2.62.96,7.64-2.98,7.59-.65,0-1.3-.5-1.85-.04l-3.75,6.37.08.31c4.17,2.47,7.53,6.03,10.13,10.09l6.55-3.77.21-.48c-1.3-3.96,3.12-7.5,6.64-5.03,2.56,1.8,2.27,6.09-.62,7.39-2.33,1.05-3.85.23-5.64-1.29l-12.77,7.33c1.53,3.38,2.61,6.79,2.74,10.54h15.14c.27-4.66,7.01-5.24,8.29-.81,1.71,5.97-7.61,7.99-8.29,1.74h-15.14c-.18,3.74-1.19,7.15-2.74,10.53l12.77,7.33c.74-.29,1.03-.98,1.82-1.32,3.79-1.65,7.48,1.99,5.77,5.77-1.84,4.09-7.94,2.67-8.21-1.55-.05-.82.45-1.74.03-2.31l-6.37-3.75-.32.08c-2.44,4.18-6.05,7.53-10.09,10.13l3.77,6.55.48.21c3.91-1.25,7.39,2.92,5.12,6.5-1.71,2.71-6.16,2.46-7.48-.48-1.05-2.33-.23-3.85,1.29-5.64l-3.98-6.79c-4.2,2.36-9.04,3.82-13.9,3.65v8.26c5.53.44,4.81,8.66-.57,8.52-5.24-.13-5.73-8.13-.35-8.52v-8.26c-4.86.18-9.69-1.27-13.88-3.65l-3.98,6.79c1.53,1.79,2.34,3.31,1.29,5.64-1.32,2.94-5.8,3.2-7.48.48-1.68-2.72-.07-6.36,3.08-6.72.89-.1,1.97.42,2.52,0l3.77-6.55c-4.06-2.6-7.63-5.96-10.09-10.13l-.31-.08-6.37,3.75-.21.48c1.34,4.02-3.31,7.63-6.77,4.93-2.35-1.83-2.13-5.88.6-7.21,2.37-1.16,3.95-.37,5.79,1.21l12.68-7.31.07-.31c-1.74-3.15-2.51-6.69-2.73-10.26h-15.14c-.27,4.66-7.01,5.24-8.29.81-1.71-5.97,7.61-7.99,8.29-1.74h15.14c.14-3.74,1.21-7.15,2.74-10.53l-12.77-7.33c-.37-.04-1.05.89-1.52,1.16-3.67,2.1-7.86-1.66-6.07-5.61s7.72-2.8,8.19,1.34c.1.89-.42,1.97,0,2.52l6.55,3.77c2.57-4.07,5.97-7.62,10.13-10.1l.08-.31-3.75-6.37-.48-.21c-4.46,1.5-7.99-4.19-4.35-7.34,3.64-3.14,8.86,1.05,6.67,5.29-.36.7-1,.98-1.24,1.67l3.98,6.79c4.2-2.39,9.03-3.8,13.9-3.65v-8.26c-5.92-.55-4.52-9.38,1.21-8.45,4.81.78,4.7,8.15-.28,8.45ZM125.85,82.53c0-1.95-1.58-3.52-3.52-3.52s-3.52,1.58-3.52,3.52,1.58,3.52,3.52,3.52,3.52-1.58,3.52-3.52ZM104.93,88.12c0-1.95-1.58-3.52-3.52-3.52s-3.52,1.58-3.52,3.52,1.58,3.52,3.52,3.52,3.52-1.58,3.52-3.52ZM146.76,88.13c0-1.95-1.58-3.53-3.53-3.53s-3.53,1.58-3.53,3.53,1.58,3.53,3.53,3.53,3.53-1.58,3.53-3.53ZM121.87,96.58c-4.51-.04-9.23,1.18-13.06,3.55l2.63,4.5c3.28-1.68,6.75-2.55,10.43-2.77v-5.28ZM122.79,101.86c3.67.18,7.15,1.1,10.42,2.74l2.64-4.46c-3.83-2.4-8.56-3.53-13.06-3.55v5.28ZM89.62,103.44c0-1.95-1.58-3.52-3.52-3.52s-3.52,1.58-3.52,3.52,1.58,3.52,3.52,3.52,3.52-1.58,3.52-3.52ZM162.09,103.45c0-1.95-1.58-3.53-3.53-3.53s-3.53,1.58-3.53,3.53,1.58,3.53,3.53,3.53,3.53-1.58,3.53-3.53ZM107.98,100.49c-3.82,2.4-7.35,5.58-9.43,9.63l4.58,2.51c1.9-2.95,4.32-5.56,7.39-7.33.2-.25.08-.44-.02-.68-.17-.43-2.28-4.11-2.52-4.13ZM141.41,112.62c.4.23,4.17-2.14,4.78-2.61-2.36-3.89-5.63-7.16-9.52-9.52l-2.62,4.66c2.96,1.93,5.65,4.33,7.36,7.47ZM143.09,124.35c0-11.47-9.3-20.76-20.76-20.76s-20.76,9.3-20.76,20.76,9.3,20.76,20.76,20.76,20.76-9.3,20.76-20.76ZM84.02,124.36c0-1.94-1.58-3.52-3.52-3.52s-3.52,1.58-3.52,3.52,1.58,3.52,3.52,3.52,3.52-1.58,3.52-3.52ZM167.68,124.35c0-1.95-1.58-3.52-3.52-3.52s-3.52,1.58-3.52,3.52,1.58,3.52,3.52,3.52,3.52-1.58,3.52-3.52ZM103.25,136.09c-.4-.23-4.17,2.14-4.78,2.61,2.35,3.89,5.63,7.16,9.52,9.52l2.65-4.67c-2.97-1.89-5.68-4.33-7.39-7.46ZM134.06,143.44c-.23.39,2.14,4.17,2.61,4.78,3.91-2.34,7.15-5.64,9.52-9.52l-4.67-2.65c-1.88,2.97-4.37,5.66-7.46,7.39ZM89.61,145.27c0-1.95-1.58-3.53-3.53-3.53s-3.53,1.58-3.53,3.53,1.58,3.53,3.53,3.53,3.53-1.58,3.53-3.53ZM162.08,145.26c0-1.95-1.58-3.53-3.53-3.53s-3.53,1.58-3.53,3.53,1.58,3.53,3.53,3.53,3.53-1.58,3.53-3.53ZM121.87,146.86c-3.69-.16-7.12-1.13-10.42-2.74l-2.64,4.46c3.86,2.4,8.51,3.56,13.06,3.55v-5.28ZM122.79,152.14c4.5-.04,9.23-1.14,13.06-3.55l-2.64-4.46c-3.27,1.62-6.77,2.54-10.42,2.74v5.28ZM104.94,160.59c0-1.94-1.58-3.52-3.52-3.52s-3.52,1.58-3.52,3.52,1.58,3.52,3.52,3.52,3.52-1.58,3.52-3.52ZM146.76,160.59c0-1.94-1.58-3.52-3.52-3.52s-3.52,1.58-3.52,3.52,1.58,3.52,3.52,3.52,3.52-1.58,3.52-3.52ZM125.85,166.19c0-1.95-1.58-3.52-3.52-3.52s-3.52,1.58-3.52,3.52,1.58,3.52,3.52,3.52,3.52-1.58,3.52-3.52Z"/><circle class="cls-4" cx="156.84" cy="115.12" r="1.67"/><circle class="cls-4" cx="97.06" cy="99.09" r="1.67"/><circle class="cls-4" cx="131.56" cy="89.85" r="1.67"/><circle class="cls-4" cx="113.09" cy="158.86" r="1.67"/><circle class="cls-4" cx="87.82" cy="133.59" r="1.67"/><circle class="cls-4" cx="113.1" cy="89.85" r="1.67"/><circle class="cls-4" cx="156.84" cy="133.58" r="1.67"/><circle class="cls-4" cx="131.56" cy="158.87" r="1.67"/><circle class="cls-4" cx="87.82" cy="115.13" r="1.67"/><circle class="cls-4" cx="147.58" cy="99.1" r="1.66"/><circle class="cls-4" cx="97.07" cy="149.61" r="1.66"/><circle class="cls-4" cx="147.58" cy="149.61" r="1.66"/><circle class="cls-4" cx="122.33" cy="166.2" r="1.94"/><circle class="cls-4" cx="164.17" cy="124.36" r="1.94"/><circle class="cls-4" cx="80.48" cy="124.36" r="1.94"/><circle class="cls-4" cx="122.32" cy="82.51" r="1.95"/><circle class="cls-4" cx="101.4" cy="88.14" r="1.95"/><circle class="cls-4" cx="143.24" cy="88.15" r="1.96"/><circle class="cls-4" cx="86.12" cy="145.27" r="1.96"/><circle class="cls-4" cx="86.12" cy="103.44" r="1.95"/><circle class="cls-4" cx="158.54" cy="103.44" r="1.96"/><circle class="cls-4" cx="158.53" cy="145.28" r="1.96"/><circle class="cls-4" cx="143.24" cy="160.56" r="1.96"/><circle class="cls-4" cx="101.41" cy="160.58" r="1.96"/><path class="cls-4" d="M138.84,124.36c0,9.12-7.4,16.52-16.52,16.52s-16.52-7.4-16.52-16.52,7.4-16.52,16.52-16.52,16.52,7.4,16.52,16.52ZM117.24,119.34h-2.92s-3.47,10.07-3.47,10.07l2.26-.03.69-2.13,3.79-.15.86,2.28,2.26.03-3.47-10.07ZM124.39,125.73c2.37.25,5.8-.25,5.72-3.31-.03-1.23-1.35-3.12-2.62-3.12h-5.4v10.1h2.3v-3.67ZM133.81,119.31h-2.3v10.1h2.3v-10.1Z"/><polygon class="cls-4" points="117.05 125.27 114.52 125.27 115.67 121.14 117.05 125.27"/><path class="cls-4" d="M124.39,123.9v-2.76c1.26.02,3.46-.41,3.37,1.46-.08,1.64-2.19,1.27-3.37,1.3Z"/><rect class="cls-2" x="2" y="2" width="240.94" height="240.94" rx="25.55" ry="25.55"/><path class="cls-5" d="M218.73,234.55c0,.28-.05.54-.14.8h-2.99c1.04-.27,2.09-.54,3.13-.8Z"/><path class="cls-3" d="M234.51,29.27v131.42c-1.15,0-2.3-.03-3.46,0-6.44.18-11.16,4.51-11.48,10.49-.32,6.05,3.84,11.02,10.06,11.95,1.61.24,3.25.31,4.87.46v33.85c-.28.77-.62,1.53-.83,2.32-2.05,7.91-7.03,12.84-14.96,14.79-1.04.27-2.09.54-3.13.8h-44.8c.05-4.78.18-9.57.13-14.35-.03-2.59-1.7-4.46-3.62-4.46-1.92,0-3.59,1.87-3.62,4.46-.05,4.78.08,9.57.13,14.35h-3.98c0-4.76.08-9.53,0-14.29-.04-2.58-1.58-4.4-3.52-4.54-1.96-.14-3.8,1.62-4.11,4.09-.14,1.13-.02,2.3-.04,3.45-.09,3.77-.19,7.53-.28,11.3h-2.99c-.02-.99-.06-1.97-.07-2.96,0-3.95.07-7.9-.04-11.84-.06-2.26-1.44-3.66-3.64-4-2.01-.3-3.84,1.53-4.13,4-.12.97-.02,1.97-.02,2.96-.02,3.95-.05,7.89-.07,11.84h-2.99c-.1-4.59-.14-9.18-.31-13.76-.12-3.18-1.87-5.23-4.13-5.07-2.08.15-3.5,2.07-3.53,5.03-.05,4.6,0,9.2.01,13.8h-3.98c.05-4.78.18-9.57.13-14.35-.03-2.59-1.7-4.46-3.62-4.46s-3.59,1.87-3.62,4.46c-.05,4.78.08,9.57.13,14.35h-3.98c0-4.76.08-9.53,0-14.29-.04-2.58-1.58-4.4-3.52-4.54-1.96-.14-3.8,1.62-4.11,4.09-.14,1.13-.02,2.3-.04,3.45-.09,3.77-.19,7.53-.28,11.3h-2.99c-.02-.99-.06-1.97-.07-2.96,0-3.95.07-7.9-.04-11.84-.06-2.26-1.44-3.66-3.64-4-2.01-.3-3.84,1.53-4.13,4-.12.97-.02,1.97-.02,2.96-.02,3.95-.05,7.89-.07,11.84h-2.99c-.1-4.59-.14-9.18-.31-13.76-.12-3.18-1.87-5.23-4.13-5.07-2.08.15-3.5,2.07-3.53,5.03-.05,4.6,0,9.2.01,13.8h-3.98c.05-4.78.18-9.57.13-14.35-.03-2.59-1.7-4.46-3.62-4.46-1.92,0-3.59,1.87-3.62,4.46-.05,4.78.08,9.57.13,14.35H29.42c-1.05-.27-2.09-.53-3.14-.8-9.71-2.53-15.61-9.98-15.74-20.17-.11-8.62-.04-17.24,0-25.86,0-1.63-.28-3.59.5-4.79.5-.77,2.71-.38,4.15-.58,5.53-.79,9.67-4.82,10.23-9.92.6-5.42-2.32-10.06-7.68-11.89-1.37-.47-2.93-.74-4.35-.59-2.61.26-3.16-.93-2.89-3.16.12-.98.02-1.99.02-2.98,0-30,0-60.01,0-90.01,0-10.61-.03-21.22.01-31.83.03-8.05,3.34-14.35,10.31-18.57,3.8-2.3,8.01-2.85,12.36-2.85,47.91.02,95.81.01,143.72.01.99,0,2,.07,2.98-.01,1.8-.15,2.22.75,2.19,2.36-.08,3.48,0,6.96-.03,10.44-.01,1.4.43,2.21,1.97,2.14,1.16-.05,2.33-.1,3.48.01,1.78.17,2.29-.6,2.24-2.29-.1-3.31.1-6.64-.07-9.94-.12-2.22.68-2.79,2.81-2.76,7.29.12,14.59-.11,21.88.1,5.64.17,10.52,2.31,14.53,6.48,3.13,3.25,4.42,7.25,5.62,11.37ZM215.89,26.27c-2.03-.04-3.93,1.71-3.95,3.65-.01,1.76,2.07,3.91,3.85,3.97,1.91.07,3.77-1.8,3.79-3.8.02-2.13-1.57-3.78-3.69-3.82ZM215.98,220.43c2.08-.09,3.63-1.73,3.6-3.8-.02-1.96-1.82-3.84-3.67-3.85-1.92,0-4.15,2.34-3.98,4.2.18,1.93,2.07,3.55,4.04,3.46ZM85.19,26.31c.01-1.92-1.79-3.87-3.63-3.94-1.8-.07-3.94,1.83-4.06,3.6-.14,1.95,2.06,4.28,3.98,4.22,1.87-.06,3.7-1.98,3.71-3.88ZM33.09,30.11c.07-1.9-1.68-3.73-3.67-3.84-2.03-.11-3.79,1.41-3.98,3.44-.2,2.13,1.69,4.25,3.79,4.24,1.65,0,3.8-2.15,3.86-3.85ZM29.35,52.59c.09-1.77-1.81-3.93-3.58-4.08-1.97-.16-4.28,1.98-4.24,3.92.04,1.84,1.96,3.7,3.84,3.74,1.89.04,3.88-1.76,3.98-3.59ZM25.49,93.32c-1.82.02-3.87,1.94-3.95,3.71-.09,2.03,2.03,4.07,4.11,3.95,1.91-.11,3.76-2.05,3.69-3.87-.07-1.8-2.11-3.81-3.85-3.79ZM28.96,212.76c-1.88.09-3.66,2.18-3.53,4.14.15,2.08,1.93,3.66,4.01,3.53,2.03-.12,3.79-2.04,3.64-3.97-.13-1.67-2.49-3.79-4.12-3.71ZM51.52,30.19c1.83.03,3.72-1.81,3.82-3.72.11-2.14-1.88-4.2-3.94-4.08-1.73.1-3.71,2.24-3.67,3.97.04,1.86,1.97,3.8,3.79,3.83ZM66.55,22.38c-1.78-.04-3.81,1.89-3.93,3.73-.11,1.78,1.73,3.89,3.55,4.07,2,.2,4.12-1.84,4.1-3.94-.03-1.89-1.88-3.82-3.72-3.86ZM96.2,30.18c1.82.1,3.78-1.71,3.93-3.62.15-1.86-1.52-3.91-3.39-4.16-1.97-.26-4.24,1.79-4.25,3.85-.02,1.8,1.91,3.83,3.71,3.92ZM25.51,63.5c-1.83-.03-3.87,1.87-3.95,3.67-.08,1.83,1.71,3.79,3.6,3.94,2.11.16,4.23-1.77,4.19-3.83-.03-1.85-1.96-3.75-3.84-3.78ZM29.33,82c-.13-1.79-2.25-3.68-4.02-3.6-1.77.08-3.78,2.15-3.78,3.88,0,2.03,2.23,3.97,4.29,3.76,1.9-.2,3.64-2.2,3.5-4.04Z"/><path class="cls-5" d="M26.44,235.35c-.1-.26-.16-.52-.15-.8,1.05.27,2.09.53,3.14.8h-2.99Z"/><rect class="cls-1" x="55.34" y="60.48" width="141.07" height="141.07"/><circle class="cls-2" cx="122.47" cy="123.34" r="60.84"/></g></g></svg>