<?xml version="1.0" encoding="UTF-8"?><svg id="Calque_2" xmlns="http://www.w3.org/2000/svg" viewBox="0 0 244.94 244.94"><defs><style>.cls-1,.cls-2,.cls-3,.cls-4{fill:none;}.cls-2{stroke-width:4px;}.cls-2,.cls-3,.cls-4{stroke:#ed6b1e;}.cls-5{fill:#888788;}.cls-3{stroke-miterlimit:10;stroke-width:.75px;}</style></defs><g id="Calque_3"><g id="Calque_4"><rect class="cls-2" x="2" y="2" width="240.94" height="240.94" rx="25.55" ry="25.55"/><path class="cls-5" d="M218.73,234.55c0,.28-.05.54-.14.8h-2.99c1.04-.27,2.09-.54,3.13-.8Z"/><path class="cls-4" d="M234.51,29.27v131.42c-1.15,0-2.3-.03-3.46,0-6.44.18-11.16,4.51-11.48,10.49-.32,6.05,3.84,11.02,10.06,11.95,1.61.24,3.25.31,4.87.46v33.85c-.28.77-.62,1.53-.83,2.32-2.05,7.91-7.03,12.84-14.96,14.79-1.04.27-2.09.54-3.13.8h-44.8c.05-4.78.18-9.57.13-14.35-.03-2.59-1.7-4.46-3.62-4.46-1.92,0-3.59,1.87-3.62,4.46-.05,4.78.08,9.57.13,14.35h-3.98c0-4.76.08-9.53,0-14.29-.04-2.58-1.58-4.4-3.52-4.54-1.96-.14-3.8,1.62-4.11,4.09-.14,1.13-.02,2.3-.04,3.45-.09,3.77-.19,7.53-.28,11.3h-2.99c-.02-.99-.06-1.97-.07-2.96,0-3.95.07-7.9-.04-11.84-.06-2.26-1.44-3.66-3.64-4-2.01-.3-3.84,1.53-4.13,4-.12.97-.02,1.97-.02,2.96-.02,3.95-.05,7.89-.07,11.84h-2.99c-.1-4.59-.14-9.18-.31-13.76-.12-3.18-1.87-5.23-4.13-5.07-2.08.15-3.5,2.07-3.53,5.03-.05,4.6,0,9.2.01,13.8h-3.98c.05-4.78.18-9.57.13-14.35-.03-2.59-1.7-4.46-3.62-4.46s-3.59,1.87-3.62,4.46c-.05,4.78.08,9.57.13,14.35h-3.98c0-4.76.08-9.53,0-14.29-.04-2.58-1.58-4.4-3.52-4.54-1.96-.14-3.8,1.62-4.11,4.09-.14,1.13-.02,2.3-.04,3.45-.09,3.77-.19,7.53-.28,11.3h-2.99c-.02-.99-.06-1.97-.07-2.96,0-3.95.07-7.9-.04-11.84-.06-2.26-1.44-3.66-3.64-4-2.01-.3-3.84,1.53-4.13,4-.12.97-.02,1.97-.02,2.96-.02,3.95-.05,7.89-.07,11.84h-2.99c-.1-4.59-.14-9.18-.31-13.76-.12-3.18-1.87-5.23-4.13-5.07-2.08.15-3.5,2.07-3.53,5.03-.05,4.6,0,9.2.01,13.8h-3.98c.05-4.78.18-9.57.13-14.35-.03-2.59-1.7-4.46-3.62-4.46-1.92,0-3.59,1.87-3.62,4.46-.05,4.78.08,9.57.13,14.35H29.42c-1.05-.27-2.09-.53-3.14-.8-9.71-2.53-15.61-9.98-15.74-20.17-.11-8.62-.04-17.24,0-25.86,0-1.63-.28-3.59.5-4.79.5-.77,2.71-.38,4.15-.58,5.53-.79,9.67-4.82,10.23-9.92.6-5.42-2.32-10.06-7.68-11.89-1.37-.47-2.93-.74-4.35-.59-2.61.26-3.16-.93-2.89-3.16.12-.98.02-1.99.02-2.98,0-30,0-60.01,0-90.01,0-10.61-.03-21.22.01-31.83.03-8.05,3.34-14.35,10.31-18.57,3.8-2.3,8.01-2.85,12.36-2.85,47.91.02,95.81.01,143.72.01.99,0,2,.07,2.98-.01,1.8-.15,2.22.75,2.19,2.36-.08,3.48,0,6.96-.03,10.44-.01,1.4.43,2.21,1.97,2.14,1.16-.05,2.33-.1,3.48.01,1.78.17,2.29-.6,2.24-2.29-.1-3.31.1-6.64-.07-9.94-.12-2.22.68-2.79,2.81-2.76,7.29.12,14.59-.11,21.88.1,5.64.17,10.52,2.31,14.53,6.48,3.13,3.25,4.42,7.25,5.62,11.37ZM215.89,26.27c-2.03-.04-3.93,1.71-3.95,3.65-.01,1.76,2.07,3.91,3.85,3.97,1.91.07,3.77-1.8,3.79-3.8.02-2.13-1.57-3.78-3.69-3.82ZM215.98,220.43c2.08-.09,3.63-1.73,3.6-3.8-.02-1.96-1.82-3.84-3.67-3.85-1.92,0-4.15,2.34-3.98,4.2.18,1.93,2.07,3.55,4.04,3.46ZM85.19,26.31c.01-1.92-1.79-3.87-3.63-3.94-1.8-.07-3.94,1.83-4.06,3.6-.14,1.95,2.06,4.28,3.98,4.22,1.87-.06,3.7-1.98,3.71-3.88ZM33.09,30.11c.07-1.9-1.68-3.73-3.67-3.84-2.03-.11-3.79,1.41-3.98,3.44-.2,2.13,1.69,4.25,3.79,4.24,1.65,0,3.8-2.15,3.86-3.85ZM29.35,52.59c.09-1.77-1.81-3.93-3.58-4.08-1.97-.16-4.28,1.98-4.24,3.92.04,1.84,1.96,3.7,3.84,3.74,1.89.04,3.88-1.76,3.98-3.59ZM25.49,93.32c-1.82.02-3.87,1.94-3.95,3.71-.09,2.03,2.03,4.07,4.11,3.95,1.91-.11,3.76-2.05,3.69-3.87-.07-1.8-2.11-3.81-3.85-3.79ZM28.96,212.76c-1.88.09-3.66,2.18-3.53,4.14.15,2.08,1.93,3.66,4.01,3.53,2.03-.12,3.79-2.04,3.64-3.97-.13-1.67-2.49-3.79-4.12-3.71ZM51.52,30.19c1.83.03,3.72-1.81,3.82-3.72.11-2.14-1.88-4.2-3.94-4.08-1.73.1-3.71,2.24-3.67,3.97.04,1.86,1.97,3.8,3.79,3.83ZM66.55,22.38c-1.78-.04-3.81,1.89-3.93,3.73-.11,1.78,1.73,3.89,3.55,4.07,2,.2,4.12-1.84,4.1-3.94-.03-1.89-1.88-3.82-3.72-3.86ZM96.2,30.18c1.82.1,3.78-1.71,3.93-3.62.15-1.86-1.52-3.91-3.39-4.16-1.97-.26-4.24,1.79-4.25,3.85-.02,1.8,1.91,3.83,3.71,3.92ZM25.51,63.5c-1.83-.03-3.87,1.87-3.95,3.67-.08,1.83,1.71,3.79,3.6,3.94,2.11.16,4.23-1.77,4.19-3.83-.03-1.85-1.96-3.75-3.84-3.78ZM29.33,82c-.13-1.79-2.25-3.68-4.02-3.6-1.77.08-3.78,2.15-3.78,3.88,0,2.03,2.23,3.97,4.29,3.76,1.9-.2,3.64-2.2,3.5-4.04Z"/><path class="cls-5" d="M26.44,235.35c-.1-.26-.16-.52-.15-.8,1.05.27,2.09.53,3.14.8h-2.99Z"/><rect class="cls-1" x="55.34" y="60.48" width="141.07" height="141.07"/><circle class="cls-2" cx="122.47" cy="123.34" r="60.84"/><path class="cls-3" d="M151.67,147.54c0,2.75-2.23,4.98-4.98,4.98s-4.98-2.23-4.98-4.98,2.23-4.98,4.98-4.98,4.98,2.23,4.98,4.98ZM150.04,147.54c0-1.86-1.5-3.36-3.36-3.36s-3.36,1.5-3.36,3.36,1.5,3.36,3.36,3.36,3.36-1.5,3.36-3.36Z"/><path class="cls-3" d="M127.41,106.55l3.57,1.43,3.83-2.83,5.72,5.68c.12.17,0,.28-.05.43-.33.88-2.75,3.07-2.63,3.85.11.73,1.31,2.38,1.44,3.31l4.72.75v8.3s-4.8.82-4.8.82l-1.36,3.47,2.72,3.94-5.69,5.75-4.1-2.79-3.43,1.5-.64,4.79h-8.22s-.78-4.88-.78-4.88l-3.63-1.46-3.95,2.88-5.72-5.69c-.11-.16-.02-.29.05-.44.39-.83,2.74-3.14,2.63-3.85s-1.3-2.39-1.44-3.3l-4.73-.74v-8.31s4.81-.82,4.81-.82l1.36-3.48-2.73-3.93,5.69-5.75,4.1,2.79,3.5-1.55.75-4.72,7.9-.02.38.27.72,4.59ZM125.24,103.33h-5.54s-.69,4.53-.69,4.53c-1.73.52-3.52,1.01-4.97,2.14l-3.81-2.68-3.74,3.79,2.59,3.73c-.85,1.59-1.68,3.18-2.03,4.99l-4.39.67c-.21.05-.23.2-.27.38-.08.45-.04,4.73.08,4.98.07.14.21.25.36.29.79.23,3.68.27,4.14.6.35.88.53,1.82.9,2.7.21.5,1.16,1.99,1.2,2.24.1.68-2.26,2.88-2.52,3.65-.04.11-.11.19,0,.31l3.77,3.73,3.62-2.73c1.59.89,3.22,1.7,5.01,2.09l.76,4.58h5.54s.74-4.57.74-4.57c1.74-.46,3.44-1.07,4.93-2.1l3.81,2.68,3.74-3.79-2.6-3.73c.91-1.56,1.64-3.22,2.04-4.99l4.39-.67c.21-.05.23-.2.27-.39.09-.47.08-4.94-.07-5.15l-4.51-.72c-.35-.88-.54-1.82-.9-2.7-.22-.53-1.14-1.95-1.2-2.25-.11-.54,2.13-2.8,2.47-3.52.07-.15.16-.27.05-.44l-3.76-3.73-3.62,2.73c-1.56-.97-3.19-1.74-5.02-2.09l-.77-4.58Z"/><path class="cls-3" d="M133.23,123.34c0,5.94-4.82,10.76-10.76,10.76s-10.76-4.82-10.76-10.76,4.82-10.76,10.76-10.76,10.76,4.82,10.76,10.76ZM131.61,123.34c0-5.05-4.09-9.14-9.14-9.14s-9.14,4.09-9.14,9.14,4.09,9.14,9.14,9.14,9.14-4.09,9.14-9.14Z"/><path class="cls-3" d="M129.36,123.34c0,3.79-3.08,6.87-6.87,6.87s-6.87-3.08-6.87-6.87,3.08-6.87,6.87-6.87,6.87,3.08,6.87,6.87ZM127.73,123.34c0-2.9-2.35-5.25-5.25-5.25s-5.25,2.35-5.25,5.25,2.35,5.25,5.25,5.25,5.25-2.35,5.25-5.25Z"/><path class="cls-3" d="M74.95,116.88l8.58-8.82,8.74,8.82h-4.57v13.39l7.43-7.35,8.74,8.82h-4.74v15.76c9.96,9.65,24.99,12.13,37.62,6.26.61-.28,2.47-1.16,2.88-1.53.11-.1.16-.13.14-.29-.02-.27-.86-1.8-1.01-2.43-2.4-9.79,11.72-14.2,15.43-5.14,3.43,8.39-6.91,15.06-13.34,8.98-12.92,8.12-30.41,6.52-41.72-3.64v6.04h-8v-23.76l-.24-.24h-3.18v24.01h-7.92l-.24-.24v-38.62h-4.57ZM78.87,115.25h2.29v38.87h4.9v-38.87h2.29l-4.68-4.71-4.79,4.71ZM99.77,130.11l-4.65-4.9-4.82,4.9h2.29l.24,24.01h4.65v-24.01h2.29ZM153.2,147.55c0-3.61-2.92-6.53-6.53-6.53s-6.53,2.92-6.53,6.53,2.92,6.53,6.53,6.53,6.53-2.92,6.53-6.53Z"/><path class="cls-3" d="M145.83,96.96v-6.04h8v24.01h3.43v-24.01h7.43c.15,0,.63.09.73.24v38.38s-.21.13-.16.24h4.74l-8.6,8.81-8.71-8.81h4.57v-13.39l-7.43,7.35-8.74-8.82h4.74v-15.76c-10.69-10.43-27.78-12.45-40.59-4.66l-.05.22c4.51,7.66-4.13,16.16-11.67,11.02-5.77-3.93-3.75-13.36,3.11-14.63,2.75-.51,5.4.36,7.44,2.22,12.92-8.14,30.42-6.51,41.76,3.61ZM104.8,99.13c0-3.61-2.92-6.53-6.53-6.53s-6.53,2.92-6.53,6.53,2.92,6.53,6.53,6.53,6.53-2.92,6.53-6.53ZM152.19,116.55l-.08-24.01h-4.65v24.01h-2.45l4.82,4.9,4.82-4.9h-2.45ZM163.79,131.41v-38.62l-.24-.24h-4.65v38.87h-2.29l4.65,4.85,4.82-4.85h-2.29Z"/><path class="cls-3" d="M103.25,99.14c0,2.75-2.23,4.98-4.98,4.98s-4.98-2.23-4.98-4.98,2.23-4.98,4.98-4.98,4.98,2.23,4.98,4.98ZM101.63,99.14c0-1.85-1.5-3.36-3.36-3.36s-3.36,1.5-3.36,3.36,1.5,3.36,3.36,3.36,3.36-1.5,3.36-3.36Z"/></g></g></svg>