<?xml version="1.0" encoding="UTF-8"?><svg id="Calque_2" xmlns="http://www.w3.org/2000/svg" viewBox="0 0 244.94 244.94"><defs><style>.cls-1,.cls-2,.cls-3,.cls-4{fill:none;}.cls-2,.cls-3,.cls-4{stroke:#c04090;}.cls-5{fill:#888788;}.cls-3{stroke-width:4px;}.cls-4{stroke-width:2px;}</style></defs><g id="Calque_3"><path class="cls-5" d="M218.26,232.28c0,.28-.05.54-.14.8h-2.99c1.04-.27,2.09-.54,3.13-.8Z"/><path class="cls-2" d="M234.05,27v131.42c-1.15,0-2.3-.03-3.46,0-6.44.18-11.16,4.51-11.48,10.49-.32,6.05,3.84,11.02,10.06,11.95,1.61.24,3.25.31,4.87.46v33.85c-.28.77-.62,1.53-.83,2.32-2.05,7.91-7.03,12.84-14.96,14.79-1.04.27-2.09.54-3.13.8h-44.8c.05-4.78.18-9.57.13-14.35-.03-2.59-1.7-4.46-3.62-4.46-1.92,0-3.59,1.87-3.62,4.46-.05,4.78.08,9.57.13,14.35h-3.98c0-4.76.08-9.53,0-14.29-.04-2.58-1.58-4.4-3.52-4.54-1.96-.14-3.8,1.62-4.11,4.09-.14,1.13-.02,2.3-.04,3.45-.09,3.77-.19,7.53-.28,11.3h-2.99c-.02-.99-.06-1.97-.07-2.96,0-3.95.07-7.9-.04-11.84-.06-2.26-1.44-3.66-3.64-4-2.01-.3-3.84,1.53-4.13,4-.12.97-.02,1.97-.02,2.96-.02,3.95-.05,7.89-.07,11.84h-2.99c-.1-4.59-.14-9.18-.31-13.76-.12-3.18-1.87-5.23-4.13-5.07-2.08.15-3.5,2.07-3.53,5.03-.05,4.6,0,9.2.01,13.8h-3.98c.05-4.78.18-9.57.13-14.35-.03-2.59-1.7-4.46-3.62-4.46s-3.59,1.87-3.62,4.46c-.05,4.78.08,9.57.13,14.35h-3.98c0-4.76.08-9.53,0-14.29-.04-2.58-1.58-4.4-3.52-4.54-1.96-.14-3.8,1.62-4.11,4.09-.14,1.13-.02,2.3-.04,3.45-.09,3.77-.19,7.53-.28,11.3h-2.99c-.02-.99-.06-1.97-.07-2.96,0-3.95.07-7.9-.04-11.84-.06-2.26-1.44-3.66-3.64-4-2.01-.3-3.84,1.53-4.13,4-.12.97-.02,1.97-.02,2.96-.02,3.95-.05,7.89-.07,11.84h-2.99c-.1-4.59-.14-9.18-.31-13.76-.12-3.18-1.87-5.23-4.13-5.07-2.08.15-3.5,2.07-3.53,5.03-.05,4.6,0,9.2.01,13.8h-3.98c.05-4.78.18-9.57.13-14.35-.03-2.59-1.7-4.46-3.62-4.46-1.92,0-3.59,1.87-3.62,4.46-.05,4.78.08,9.57.13,14.35H28.96c-1.05-.27-2.09-.53-3.14-.8-9.71-2.53-15.61-9.98-15.74-20.17-.11-8.62-.04-17.24,0-25.86,0-1.63-.28-3.59.5-4.79.5-.77,2.71-.38,4.15-.58,5.53-.79,9.67-4.82,10.23-9.92.6-5.42-2.32-10.06-7.68-11.89-1.37-.47-2.93-.74-4.35-.59-2.61.26-3.16-.93-2.89-3.16.12-.98.02-1.99.02-2.98,0-30,0-60.01,0-90.01,0-10.61-.03-21.22.01-31.83.03-8.05,3.34-14.35,10.31-18.57,3.8-2.3,8.01-2.85,12.36-2.85,47.91.02,95.81.01,143.72.01.99,0,2,.07,2.98-.01,1.8-.15,2.22.75,2.19,2.36-.08,3.48,0,6.96-.03,10.44-.01,1.4.43,2.21,1.97,2.14,1.16-.05,2.33-.1,3.48.01,1.78.17,2.29-.6,2.24-2.29-.1-3.31.1-6.64-.07-9.94-.12-2.22.68-2.79,2.81-2.76,7.29.12,14.59-.11,21.88.1,5.64.17,10.52,2.31,14.53,6.48,3.13,3.25,4.42,7.25,5.62,11.37ZM121.97,177.49c30.76.69,55.68-25.37,56.55-54.45.97-32.13-24.72-56.48-51.67-58.27-38.32-2.54-60.73,28.84-61.36,54.62-.75,31.06,24.65,58.65,56.47,58.1ZM215.43,24c-2.03-.04-3.93,1.71-3.95,3.65-.01,1.76,2.07,3.91,3.85,3.97,1.91.07,3.77-1.8,3.79-3.8.02-2.13-1.57-3.78-3.69-3.82ZM215.51,218.16c2.08-.09,3.63-1.73,3.6-3.8-.02-1.96-1.82-3.84-3.67-3.85-1.92,0-4.15,2.34-3.98,4.2.18,1.93,2.07,3.55,4.04,3.46ZM84.72,24.04c.01-1.92-1.79-3.87-3.63-3.94-1.8-.07-3.94,1.83-4.06,3.6-.14,1.95,2.06,4.28,3.98,4.22,1.87-.06,3.7-1.98,3.71-3.88ZM32.62,27.84c.07-1.9-1.68-3.73-3.67-3.84-2.03-.11-3.79,1.41-3.98,3.44-.2,2.13,1.69,4.25,3.79,4.24,1.65,0,3.8-2.15,3.86-3.85ZM28.89,50.32c.09-1.77-1.81-3.93-3.58-4.08-1.97-.16-4.28,1.98-4.24,3.92.04,1.84,1.96,3.7,3.84,3.74,1.89.04,3.88-1.76,3.98-3.59ZM25.03,91.05c-1.82.02-3.87,1.94-3.95,3.71-.09,2.03,2.03,4.07,4.11,3.95,1.91-.11,3.76-2.05,3.69-3.87-.07-1.8-2.11-3.81-3.85-3.79ZM28.5,210.49c-1.88.09-3.66,2.18-3.53,4.14.15,2.08,1.93,3.66,4.01,3.53,2.03-.12,3.79-2.04,3.64-3.97-.13-1.67-2.49-3.79-4.12-3.71ZM51.05,27.92c1.83.03,3.72-1.81,3.82-3.72.11-2.14-1.88-4.2-3.94-4.08-1.73.1-3.71,2.24-3.67,3.97.04,1.86,1.97,3.8,3.79,3.83ZM66.09,20.11c-1.78-.04-3.81,1.89-3.93,3.73-.11,1.78,1.73,3.89,3.55,4.07,2,.2,4.12-1.84,4.1-3.94-.03-1.89-1.88-3.82-3.72-3.86ZM95.74,27.91c1.82.1,3.78-1.71,3.93-3.62.15-1.86-1.52-3.91-3.39-4.16-1.97-.26-4.24,1.79-4.25,3.85-.02,1.8,1.91,3.83,3.71,3.92ZM25.04,61.23c-1.83-.03-3.87,1.87-3.95,3.67-.08,1.83,1.71,3.79,3.6,3.94,2.11.16,4.23-1.77,4.19-3.83-.03-1.85-1.96-3.75-3.84-3.78ZM28.87,79.73c-.13-1.79-2.25-3.68-4.02-3.6-1.77.08-3.78,2.15-3.78,3.88,0,2.03,2.23,3.97,4.29,3.76,1.9-.2,3.64-2.2,3.5-4.04Z"/><path class="cls-5" d="M25.97,233.08c-.1-.26-.16-.52-.15-.8,1.05.27,2.09.53,3.14.8h-2.99Z"/><path class="cls-1" d="M173.36,121.41c.65,27.71-23.49,51.58-52.15,51.14-27.34-.42-50.8-23.5-50.64-51.78.15-27.26,23.06-51.31,51.81-51.14,28.2.17,51.88,23.79,50.99,51.78ZM133.27,128.83c2.16-.4,4.65-.61,6.98-1.34,9.68-3.07,15.3-13.97,12.14-23.27-.96-2.82-2.48-3.3-4.68-1.33-1.72,1.55-3.28,3.28-4.95,4.89-3.69,3.57-2.53,3.94-6.79,0-.24-.22-.41-.53-.67-.73-2.02-1.52-2.26-2.92-.12-4.7,2.03-1.69,3.86-3.64,5.64-5.6,2.45-2.69,2.01-3.82-1.51-5.14-10.46-3.93-23.97,5.18-23.63,16.79.14,4.89-1.3,8.29-4.9,11.57-6.25,5.68-12.07,11.84-17.95,17.91-3.16,3.26-3.54,6.85-1.55,10.85,1.85,3.7,4.93,4.98,8.94,4.88,3.08-.08,5.27-1.55,7.31-3.61,6.19-6.24,12.45-12.4,18.6-18.67,1.92-1.96,3.72-3.85,7.13-2.5Z"/><rect class="cls-1" x="54.88" y="58.2" width="141.07" height="141.07"/><rect class="cls-3" x="2" y="2" width="240.94" height="240.94" rx="25.55" ry="25.55"/><circle class="cls-3" cx="122.47" cy="121.09" r="53.52"/><rect class="cls-4" x="95.71" y="109.62" width="30.58" height="22.94"/><rect class="cls-4" x="118.65" y="124.91" width="30.58" height="22.94"/><line class="cls-4" x1="126.3" y1="124.91" x2="126.3" y2="132.56"/><line class="cls-4" x1="126.3" y1="132.56" x2="149.23" y2="132.56"/><line class="cls-4" x1="126.3" y1="124.91" x2="149.23" y2="124.91"/></g></svg>