<?xml version="1.0" encoding="UTF-8"?><svg id="Calque_2" xmlns="http://www.w3.org/2000/svg" viewBox="0 0 244.94 244.94"><defs><style>.cls-1,.cls-2,.cls-3{fill:none;}.cls-2{stroke-width:4px;}.cls-2,.cls-3{stroke:#ed6b1e;}.cls-4{fill:#888788;}</style></defs><g id="Calque_3"><g id="Calque_4"><path class="cls-3" d="M144.28,99.89v9.15c-.3.36-.72.57-1.1.84-5.09,3.66-11.25,5.86-17.41,6.62-1.35.17-2.79.14-4.13.34-.13.02-.28-.02-.42,0-.12.03-.44.3-.51.41-.3.44-.17.92-.21,1.4,0,.1-.08.15-.09.25-.02.32.07.93,0,1.18-.02.09-.27.2-.37.22-1.63-.04-3.27.05-4.9,0-3.93-.12-7.88-.53-11.73-1.26-3.15-.59-6.7-1.47-9.51-3.06-1.11-.62-2.25-1.49-2.67-2.73v-13.36c.23.04.34.26.51.38,3.53,2.52,9.15,3.7,13.35,4.35,8.41,1.3,17.49,1.29,25.89-.1,4.07-.67,9.45-1.84,12.86-4.34.14-.1.22-.32.42-.3ZM97.8,108.84c-.18.11-.37.07-.56.2-.55.38-.55,1.31,0,1.69.4.27,1.62.52,2.14.64.12.03.3.14.43.16.78.1,1.34-.45,1.23-1.23-.05-.33-.42-.69-.73-.79-.44-.15-1.03-.23-1.5-.36-.33-.09-.66-.27-1.01-.32ZM105.22,110.61s-.27.09-.31.11c-.06.03-.28.28-.32.35-.11.18-.06.35-.17.51.09.37.13.64.47.86.28.18.4.13.67.18,2.69.46,5.76.75,8.51.85,1.32.05,2.65-.04,3.97,0,.57-.2.8-.63.72-1.23-.05-.38-.6-.76-.97-.8-1.04-.13-2.45.05-3.55,0-2.63-.09-5.27-.43-7.85-.75-.23-.03-.46-.07-.66-.1-.13-.02-.37-.01-.5.01Z"/><path class="cls-3" d="M114.41,88.86c6.96-.26,15.02.25,21.65,2.11,2.26.63,6.8,2.22,7.97,4.34.15.28.14.36.19.65,0,.04.07.08.08.18.01.15-.07.21-.09.34-.01.07.02.16,0,.25-.15.56-.83,1.17-1.26,1.53-3.08,2.56-8.8,3.74-12.68,4.35-7.74,1.22-16.1,1.27-23.88.17-4.1-.58-9.35-1.59-12.93-3.85-1.45-.91-3.01-2.38-1.64-4.09,1.49-1.86,5.09-3.07,7.32-3.72,4.89-1.42,10.21-2.07,15.28-2.26Z"/><path class="cls-3" d="M91.26,133.45c.08-.09.52.33.59.38,3.55,2.47,8.87,3.6,13.03,4.25,4.93.78,9.93,1.11,15,.93.52-.02,1.04.02,1.56,0,.04.2.06.43.1.62.75,3.56,1.97,7.07,3.54,10.37l1.84,3.3-.8.13c-8.01.61-16.25.54-24.04-1.17-3.45-.76-6.99-1.71-9.81-3.93-.1-.07-.07-.19-.09-.21s-.13,0-.21-.09c-.18-.22-.54-.73-.62-.98-.02-.06-.09-.31-.09-.33v-13.28ZM97.63,143.15s-.27.09-.31.11c-.37.21-.58.77-.5,1.18.01.05.28.48.33.52.1.09.49.23.65.28.58.19,1.5.45,2.09.53.04,0,.07.06.11.07s.49-.13.57-.17c.64-.38.66-1.3.05-1.72-.3-.21-.71-.2-1.05-.3-.39-.11-.82-.3-1.2-.4-.22-.06-.52-.12-.74-.09ZM104.67,146.59c.24.07.46.29.72.33.54.09,1.14.1,1.68.17,2.71.35,5.5.6,8.26.68.68.02,1.99.09,2.61-.01.08-.01.4-.15.47-.2.36-.27.46-1.03.21-1.39-.09-.13-.45-.38-.6-.41-.53-.12-1.65.01-2.27,0-2.6-.07-5.2-.3-7.75-.6-.76-.09-1.52-.16-2.28-.25-.1-.01-.16-.09-.25-.09s-.13.07-.18.08c-.08.02-.16,0-.24.02-.02,0-.28.18-.31.2-.02.02-.24.33-.24.35-.02.07,0,.16-.02.24-.01.05-.08.09-.08.18,0,.18.24.51.26.71Z"/><path class="cls-3" d="M91.26,116.67l1.65,1.09c4.59,2.42,9.81,3.38,14.83,3.97,2.35.28,4.77.52,7.16.6,1.78.06,3.57-.05,5.36,0-.02.66.02,1.32,0,1.98-.12,4.2.17,8.2.76,12.3.02.12-.02.26,0,.38-.52.02-1.04-.02-1.56,0-6.73.27-14.35-.4-20.75-2.35-2.1-.64-5.86-1.91-7.07-3.8-.06-.1-.38-.75-.38-.8v-13.36ZM97.55,126.04c-.61.13-.95,1-.6,1.51.04.05.34.36.38.38.34.19.99.28,1.38.39.55.15,1.37.58,1.91.2.6-.41.58-1.27,0-1.69-.37-.26-.87-.26-1.3-.39-.36-.1-.85-.34-1.2-.4-.14-.02-.44-.03-.57,0ZM105.3,127.72c-.07.01-.34.12-.42.17-.28.17-.4.56-.47.86.11.18.07.37.2.56.07.1.22.19.29.3.23.06.49.17.72.21.1.02.24-.02.34,0,3.32.55,6.79.73,10.19.85.45.02,1.27.06,1.68-.01.09-.02.39-.14.47-.2.59-.4.59-1.28,0-1.69-.33-.23-.98-.1-1.4-.12-2.56-.14-5.14-.17-7.67-.42-1.14-.11-2.29-.3-3.44-.43-.03,0-.09-.06-.18-.08s-.24,0-.33.01Z"/><path class="cls-3" d="M168.06,118.78c.02.26-.02.54,0,.8.95,12.51-.48,26.44-8.81,36.46-3.42,4.11-8.03,7.45-12.74,9.94-.26.13-.96.54-1.18.59-.05.01-.1.01-.16,0-.9-.52-1.85-.95-2.75-1.47-2.57-1.47-5.04-3.2-7.25-5.14-.33-.29-.67-.65-1.01-.93-.95-.78-1.87-1.87-2.74-2.91-6.43-7.66-8.52-16.73-9.06-26.43-.18-3.28-.09-6.26.08-9.52.03-.47-.08-.95.08-1.39.29-.02.6.02.89,0,6.84-.47,13.74-2.54,19.6-6.28l2.24-1.56,2.4,1.64c5.86,3.72,12.71,5.73,19.51,6.2.29.02.6-.02.89,0ZM160.44,136.87c0-8.37-6.79-15.16-15.16-15.16s-15.16,6.79-15.16,15.16,6.79,15.16,15.16,15.16,15.16-6.79,15.16-15.16Z"/><path class="cls-3" d="M158.4,136.87c0,7.25-5.88,13.13-13.13,13.13s-13.13-5.88-13.13-13.13,5.88-13.13,13.13-13.13,13.13,5.88,13.13,13.13ZM152.21,133.62s.13,0,.21-.09c.17-.22.33-.61.29-.89-.07-.51-.63-.96-1.14-.89-.07,0-.32.09-.38.13-.26.15-.88.92-1.18,1.19-.73.65-1.51,1.51-2.19,2.19-1.42,1.42-2.84,2.83-4.26,4.25l-.13-.04-4.1-4.08c-.47-.23-1.09-.08-1.37.38-.11.18-.09.39-.17.57l.2.56,4.85,4.85c.47.3.95.3,1.39-.04,1.45-1.5,2.98-2.93,4.43-4.43.55-.57,1.13-1.13,1.68-1.69.46-.47.92-.92,1.35-1.35.18-.18.41-.54.51-.63Z"/><rect class="cls-2" x="2" y="2" width="240.94" height="240.94" rx="25.55" ry="25.55"/><path class="cls-4" d="M218.73,234.55c0,.28-.05.54-.14.8h-2.99c1.04-.27,2.09-.54,3.13-.8Z"/><path class="cls-3" d="M234.51,29.27v131.42c-1.15,0-2.3-.03-3.46,0-6.44.18-11.16,4.51-11.48,10.49-.32,6.05,3.84,11.02,10.06,11.95,1.61.24,3.25.31,4.87.46v33.85c-.28.77-.62,1.53-.83,2.32-2.05,7.91-7.03,12.84-14.96,14.79-1.04.27-2.09.54-3.13.8h-44.8c.05-4.78.18-9.57.13-14.35-.03-2.59-1.7-4.46-3.62-4.46-1.92,0-3.59,1.87-3.62,4.46-.05,4.78.08,9.57.13,14.35h-3.98c0-4.76.08-9.53,0-14.29-.04-2.58-1.58-4.4-3.52-4.54-1.96-.14-3.8,1.62-4.11,4.09-.14,1.13-.02,2.3-.04,3.45-.09,3.77-.19,7.53-.28,11.3h-2.99c-.02-.99-.06-1.97-.07-2.96,0-3.95.07-7.9-.04-11.84-.06-2.26-1.44-3.66-3.64-4-2.01-.3-3.84,1.53-4.13,4-.12.97-.02,1.97-.02,2.96-.02,3.95-.05,7.89-.07,11.84h-2.99c-.1-4.59-.14-9.18-.31-13.76-.12-3.18-1.87-5.23-4.13-5.07-2.08.15-3.5,2.07-3.53,5.03-.05,4.6,0,9.2.01,13.8h-3.98c.05-4.78.18-9.57.13-14.35-.03-2.59-1.7-4.46-3.62-4.46s-3.59,1.87-3.62,4.46c-.05,4.78.08,9.57.13,14.35h-3.98c0-4.76.08-9.53,0-14.29-.04-2.58-1.58-4.4-3.52-4.54-1.96-.14-3.8,1.62-4.11,4.09-.14,1.13-.02,2.3-.04,3.45-.09,3.77-.19,7.53-.28,11.3h-2.99c-.02-.99-.06-1.97-.07-2.96,0-3.95.07-7.9-.04-11.84-.06-2.26-1.44-3.66-3.64-4-2.01-.3-3.84,1.53-4.13,4-.12.97-.02,1.97-.02,2.96-.02,3.95-.05,7.89-.07,11.84h-2.99c-.1-4.59-.14-9.18-.31-13.76-.12-3.18-1.87-5.23-4.13-5.07-2.08.15-3.5,2.07-3.53,5.03-.05,4.6,0,9.2.01,13.8h-3.98c.05-4.78.18-9.57.13-14.35-.03-2.59-1.7-4.46-3.62-4.46-1.92,0-3.59,1.87-3.62,4.46-.05,4.78.08,9.57.13,14.35H29.42c-1.05-.27-2.09-.53-3.14-.8-9.71-2.53-15.61-9.98-15.74-20.17-.11-8.62-.04-17.24,0-25.86,0-1.63-.28-3.59.5-4.79.5-.77,2.71-.38,4.15-.58,5.53-.79,9.67-4.82,10.23-9.92.6-5.42-2.32-10.06-7.68-11.89-1.37-.47-2.93-.74-4.35-.59-2.61.26-3.16-.93-2.89-3.16.12-.98.02-1.99.02-2.98,0-30,0-60.01,0-90.01,0-10.61-.03-21.22.01-31.83.03-8.05,3.34-14.35,10.31-18.57,3.8-2.3,8.01-2.85,12.36-2.85,47.91.02,95.81.01,143.72.01.99,0,2,.07,2.98-.01,1.8-.15,2.22.75,2.19,2.36-.08,3.48,0,6.96-.03,10.44-.01,1.4.43,2.21,1.97,2.14,1.16-.05,2.33-.1,3.48.01,1.78.17,2.29-.6,2.24-2.29-.1-3.31.1-6.64-.07-9.94-.12-2.22.68-2.79,2.81-2.76,7.29.12,14.59-.11,21.88.1,5.64.17,10.52,2.31,14.53,6.48,3.13,3.25,4.42,7.25,5.62,11.37ZM215.89,26.27c-2.03-.04-3.93,1.71-3.95,3.65-.01,1.76,2.07,3.91,3.85,3.97,1.91.07,3.77-1.8,3.79-3.8.02-2.13-1.57-3.78-3.69-3.82ZM215.98,220.43c2.08-.09,3.63-1.73,3.6-3.8-.02-1.96-1.82-3.84-3.67-3.85-1.92,0-4.15,2.34-3.98,4.2.18,1.93,2.07,3.55,4.04,3.46ZM85.19,26.31c.01-1.92-1.79-3.87-3.63-3.94-1.8-.07-3.94,1.83-4.06,3.6-.14,1.95,2.06,4.28,3.98,4.22,1.87-.06,3.7-1.98,3.71-3.88ZM33.09,30.11c.07-1.9-1.68-3.73-3.67-3.84-2.03-.11-3.79,1.41-3.98,3.44-.2,2.13,1.69,4.25,3.79,4.24,1.65,0,3.8-2.15,3.86-3.85ZM29.35,52.59c.09-1.77-1.81-3.93-3.58-4.08-1.97-.16-4.28,1.98-4.24,3.92.04,1.84,1.96,3.7,3.84,3.74,1.89.04,3.88-1.76,3.98-3.59ZM25.49,93.32c-1.82.02-3.87,1.94-3.95,3.71-.09,2.03,2.03,4.07,4.11,3.95,1.91-.11,3.76-2.05,3.69-3.87-.07-1.8-2.11-3.81-3.85-3.79ZM28.96,212.76c-1.88.09-3.66,2.18-3.53,4.14.15,2.08,1.93,3.66,4.01,3.53,2.03-.12,3.79-2.04,3.64-3.97-.13-1.67-2.49-3.79-4.12-3.71ZM51.52,30.19c1.83.03,3.72-1.81,3.82-3.72.11-2.14-1.88-4.2-3.94-4.08-1.73.1-3.71,2.24-3.67,3.97.04,1.86,1.97,3.8,3.79,3.83ZM66.55,22.38c-1.78-.04-3.81,1.89-3.93,3.73-.11,1.78,1.73,3.89,3.55,4.07,2,.2,4.12-1.84,4.1-3.94-.03-1.89-1.88-3.82-3.72-3.86ZM96.2,30.18c1.82.1,3.78-1.71,3.93-3.62.15-1.86-1.52-3.91-3.39-4.16-1.97-.26-4.24,1.79-4.25,3.85-.02,1.8,1.91,3.83,3.71,3.92ZM25.51,63.5c-1.83-.03-3.87,1.87-3.95,3.67-.08,1.83,1.71,3.79,3.6,3.94,2.11.16,4.23-1.77,4.19-3.83-.03-1.85-1.96-3.75-3.84-3.78ZM29.33,82c-.13-1.79-2.25-3.68-4.02-3.6-1.77.08-3.78,2.15-3.78,3.88,0,2.03,2.23,3.97,4.29,3.76,1.9-.2,3.64-2.2,3.5-4.04Z"/><path class="cls-4" d="M26.44,235.35c-.1-.26-.16-.52-.15-.8,1.05.27,2.09.53,3.14.8h-2.99Z"/><rect class="cls-1" x="55.34" y="60.48" width="141.07" height="141.07"/><circle class="cls-2" cx="122.47" cy="123.34" r="60.84"/></g></g></svg>