<?xml version="1.0" encoding="UTF-8"?><svg id="Calque_2" xmlns="http://www.w3.org/2000/svg" viewBox="0 0 244.94 244.94"><defs><style>.cls-1,.cls-2,.cls-3,.cls-4{fill:none;}.cls-2{stroke-miterlimit:10;stroke-width:1.5px;}.cls-2,.cls-3,.cls-4{stroke:#ed6b1e;}.cls-3{stroke-width:4px;}.cls-5{fill:#888788;}</style></defs><g id="Calque_3"><g id="Calque_4"><rect class="cls-3" x="2" y="2" width="240.94" height="240.94" rx="25.55" ry="25.55"/><path class="cls-5" d="M218.73,234.55c0,.28-.05.54-.14.8h-2.99c1.04-.27,2.09-.54,3.13-.8Z"/><path class="cls-4" d="M234.51,29.27v131.42c-1.15,0-2.3-.03-3.46,0-6.44.18-11.16,4.51-11.48,10.49-.32,6.05,3.84,11.02,10.06,11.95,1.61.24,3.25.31,4.87.46v33.85c-.28.77-.62,1.53-.83,2.32-2.05,7.91-7.03,12.84-14.96,14.79-1.04.27-2.09.54-3.13.8h-44.8c.05-4.78.18-9.57.13-14.35-.03-2.59-1.7-4.46-3.62-4.46-1.92,0-3.59,1.87-3.62,4.46-.05,4.78.08,9.57.13,14.35h-3.98c0-4.76.08-9.53,0-14.29-.04-2.58-1.58-4.4-3.52-4.54-1.96-.14-3.8,1.62-4.11,4.09-.14,1.13-.02,2.3-.04,3.45-.09,3.77-.19,7.53-.28,11.3h-2.99c-.02-.99-.06-1.97-.07-2.96,0-3.95.07-7.9-.04-11.84-.06-2.26-1.44-3.66-3.64-4-2.01-.3-3.84,1.53-4.13,4-.12.97-.02,1.97-.02,2.96-.02,3.95-.05,7.89-.07,11.84h-2.99c-.1-4.59-.14-9.18-.31-13.76-.12-3.18-1.87-5.23-4.13-5.07-2.08.15-3.5,2.07-3.53,5.03-.05,4.6,0,9.2.01,13.8h-3.98c.05-4.78.18-9.57.13-14.35-.03-2.59-1.7-4.46-3.62-4.46s-3.59,1.87-3.62,4.46c-.05,4.78.08,9.57.13,14.35h-3.98c0-4.76.08-9.53,0-14.29-.04-2.58-1.58-4.4-3.52-4.54-1.96-.14-3.8,1.62-4.11,4.09-.14,1.13-.02,2.3-.04,3.45-.09,3.77-.19,7.53-.28,11.3h-2.99c-.02-.99-.06-1.97-.07-2.96,0-3.95.07-7.9-.04-11.84-.06-2.26-1.44-3.66-3.64-4-2.01-.3-3.84,1.53-4.13,4-.12.97-.02,1.97-.02,2.96-.02,3.95-.05,7.89-.07,11.84h-2.99c-.1-4.59-.14-9.18-.31-13.76-.12-3.18-1.87-5.23-4.13-5.07-2.08.15-3.5,2.07-3.53,5.03-.05,4.6,0,9.2.01,13.8h-3.98c.05-4.78.18-9.57.13-14.35-.03-2.59-1.7-4.46-3.62-4.46-1.92,0-3.59,1.87-3.62,4.46-.05,4.78.08,9.57.13,14.35H29.42c-1.05-.27-2.09-.53-3.14-.8-9.71-2.53-15.61-9.98-15.74-20.17-.11-8.62-.04-17.24,0-25.86,0-1.63-.28-3.59.5-4.79.5-.77,2.71-.38,4.15-.58,5.53-.79,9.67-4.82,10.23-9.92.6-5.42-2.32-10.06-7.68-11.89-1.37-.47-2.93-.74-4.35-.59-2.61.26-3.16-.93-2.89-3.16.12-.98.02-1.99.02-2.98,0-30,0-60.01,0-90.01,0-10.61-.03-21.22.01-31.83.03-8.05,3.34-14.35,10.31-18.57,3.8-2.3,8.01-2.85,12.36-2.85,47.91.02,95.81.01,143.72.01.99,0,2,.07,2.98-.01,1.8-.15,2.22.75,2.19,2.36-.08,3.48,0,6.96-.03,10.44-.01,1.4.43,2.21,1.97,2.14,1.16-.05,2.33-.1,3.48.01,1.78.17,2.29-.6,2.24-2.29-.1-3.31.1-6.64-.07-9.94-.12-2.22.68-2.79,2.81-2.76,7.29.12,14.59-.11,21.88.1,5.64.17,10.52,2.31,14.53,6.48,3.13,3.25,4.42,7.25,5.62,11.37ZM215.89,26.27c-2.03-.04-3.93,1.71-3.95,3.65-.01,1.76,2.07,3.91,3.85,3.97,1.91.07,3.77-1.8,3.79-3.8.02-2.13-1.57-3.78-3.69-3.82ZM215.98,220.43c2.08-.09,3.63-1.73,3.6-3.8-.02-1.96-1.82-3.84-3.67-3.85-1.92,0-4.15,2.34-3.98,4.2.18,1.93,2.07,3.55,4.04,3.46ZM85.19,26.31c.01-1.92-1.79-3.87-3.63-3.94-1.8-.07-3.94,1.83-4.06,3.6-.14,1.95,2.06,4.28,3.98,4.22,1.87-.06,3.7-1.98,3.71-3.88ZM33.09,30.11c.07-1.9-1.68-3.73-3.67-3.84-2.03-.11-3.79,1.41-3.98,3.44-.2,2.13,1.69,4.25,3.79,4.24,1.65,0,3.8-2.15,3.86-3.85ZM29.35,52.59c.09-1.77-1.81-3.93-3.58-4.08-1.97-.16-4.28,1.98-4.24,3.92.04,1.84,1.96,3.7,3.84,3.74,1.89.04,3.88-1.76,3.98-3.59ZM25.49,93.32c-1.82.02-3.87,1.94-3.95,3.71-.09,2.03,2.03,4.07,4.11,3.95,1.91-.11,3.76-2.05,3.69-3.87-.07-1.8-2.11-3.81-3.85-3.79ZM28.96,212.76c-1.88.09-3.66,2.18-3.53,4.14.15,2.08,1.93,3.66,4.01,3.53,2.03-.12,3.79-2.04,3.64-3.97-.13-1.67-2.49-3.79-4.12-3.71ZM51.52,30.19c1.83.03,3.72-1.81,3.82-3.72.11-2.14-1.88-4.2-3.94-4.08-1.73.1-3.71,2.24-3.67,3.97.04,1.86,1.97,3.8,3.79,3.83ZM66.55,22.38c-1.78-.04-3.81,1.89-3.93,3.73-.11,1.78,1.73,3.89,3.55,4.07,2,.2,4.12-1.84,4.1-3.94-.03-1.89-1.88-3.82-3.72-3.86ZM96.2,30.18c1.82.1,3.78-1.71,3.93-3.62.15-1.86-1.52-3.91-3.39-4.16-1.97-.26-4.24,1.79-4.25,3.85-.02,1.8,1.91,3.83,3.71,3.92ZM25.51,63.5c-1.83-.03-3.87,1.87-3.95,3.67-.08,1.83,1.71,3.79,3.6,3.94,2.11.16,4.23-1.77,4.19-3.83-.03-1.85-1.96-3.75-3.84-3.78ZM29.33,82c-.13-1.79-2.25-3.68-4.02-3.6-1.77.08-3.78,2.15-3.78,3.88,0,2.03,2.23,3.97,4.29,3.76,1.9-.2,3.64-2.2,3.5-4.04Z"/><path class="cls-5" d="M26.44,235.35c-.1-.26-.16-.52-.15-.8,1.05.27,2.09.53,3.14.8h-2.99Z"/><rect class="cls-1" x="55.34" y="60.48" width="141.07" height="141.07"/><path class="cls-2" d="M129.99,77.48c.25.34.74.4,1.08.64.48.35,1.01,1.23,1.09,1.81v8.04c.92-.08,2.45.91,3.18.92.36,0,1.09-.99,1.44-1.27.53-.43,1.15-.75,1.82-.9h7.68c1.24-6.65,10.32-8.45,14.02-2.71,4.09,6.34-2.31,14.25-9.31,11.48-2.43-.96-4.29-3.09-4.71-5.7h-6.96s-.37.17-.37.17l-5.05,5.03c-7.37-2.89-16.14-2.66-23.38.55-21.33,9.44-24.91,38.32-6.48,52.69,7.95,6.2,18.01,7.76,27.64,5.2.71-.19,2.03-.93,2.59-.5l4.9,4.87,7.12.02c.28-2.83,3.15-5.62,5.92-6.11.32-.06,1.34-.21,1.59-.21.21,0,1.17.13,1.44.18,4.77.81,7.51,6,5.8,10.49-2.18,5.71-10.1,6.61-13.57,1.62-.58-.83-1.05-1.87-1.19-2.88h-7.68c-.67-.16-1.29-.48-1.82-.91-.45-.36-1.04-1.34-1.59-1.24-.91.15-2.01.89-3.02.89v8.04c-.29,1.33-1.32,2.21-2.62,2.46-4.26-.31-9.03.39-13.22,0-1.11-.1-2.38-1.19-2.58-2.31l-.04-8.19c-3.36-.7-6.51-2.16-9.49-3.82l-.28.1-5.54,5.5c-1.37.68-2.68.52-3.87-.43-3.05-2.42-5.82-6.32-8.87-8.87-.89-1.17-1-2.6-.26-3.89l5.43-5.43.1-.28c-1.66-2.98-3.12-6.13-3.82-9.49l-8.19-.04c-1.12-.2-2.2-1.47-2.31-2.58-.39-4.19.31-8.97,0-13.22.25-1.31,1.12-2.34,2.46-2.61h8.04c.59-3.15,2.01-5.99,3.41-8.82.17-.34.59-.55.31-.96l-5.5-5.54c-.59-1.19-.59-2.62.26-3.68l9.03-9.06c1.1-.93,2.65-.97,3.89-.26l5.43,5.43.28.1c2.98-1.66,6.14-3.11,9.49-3.82v-8.04c.09-.58.62-1.46,1.1-1.81.34-.24.83-.3,1.08-.64h14.11ZM158.42,88.29c0-2.54-2.06-4.6-4.6-4.6s-4.6,2.06-4.6,4.6,2.06,4.6,4.6,4.6,4.6-2.06,4.6-4.6ZM158.42,159.31c0-2.54-2.06-4.6-4.6-4.6s-4.6,2.06-4.6,4.6,2.06,4.6,4.6,4.6,4.6-2.06,4.6-4.6Z"/><path class="cls-2" d="M133.79,98.11v7.06h4.61c.18,0,.6-1.59.78-1.94,3.06-6,12.31-5.28,14.29,1.17,2.79,9.06-9.79,14.28-14.22,6.08-.23-.43-.69-1.96-.77-2.04-.2-.19-4.74.06-5.42.07l-5.04,9.26c-.05.29.52.64.71.87.32.41.81,1.03,1.06,1.48.34.61.46,1.34.74,1.97l18.82.07c.53-2.8,2.96-5.29,5.74-5.93,6.58-1.51,11.93,5.6,8.53,11.42-3.61,6.18-12.73,4.65-14.28-2.22l-18.82.07c-.28.64-.41,1.36-.74,1.97-.24.44-.73,1.06-1.06,1.48-.19.24-.76.59-.71.87l5.04,9.26c.68.01,5.23.26,5.42.07.08-.08.54-1.61.77-2.04,4.43-8.19,17.02-3,14.22,6.08-2.02,6.56-11.51,7.17-14.39.91-.15-.33-.5-1.68-.67-1.68h-4.61v7.06s-.26-.02-.41.04c-1.11.39-2.2.89-3.34,1.19-14.79,3.91-30.16-5.08-34.02-19.82-5.38-20.53,13.45-39.46,34.02-34.02,1.27.33,2.49.96,3.75,1.23ZM150.69,106.83c0-2.54-2.06-4.6-4.6-4.6s-4.6,2.06-4.6,4.6,2.06,4.6,4.6,4.6,4.6-2.06,4.6-4.6ZM110.4,106.83c-.59.1-1.53.84-2.03,1.23-3.69,2.86-6.64,8.08-6.97,12.75-.08,1.2-.25,2.5,1.08,2.91,1.4.43,1.85-.89,1.99-2.01.58-4.53,1.72-7.89,5.34-10.94.57-.48,1.97-1.16,2.18-1.8.34-1.05-.49-2.33-1.6-2.15ZM127.53,123.8c0-2.54-2.06-4.6-4.6-4.6s-4.6,2.06-4.6,4.6,2.06,4.6,4.6,4.6,4.6-2.06,4.6-4.6ZM161.5,123.8c0-2.54-2.06-4.6-4.6-4.6s-4.6,2.06-4.6,4.6,2.06,4.6,4.6,4.6,4.6-2.06,4.6-4.6ZM150.69,140.78c0-2.54-2.06-4.6-4.6-4.6s-4.6,2.06-4.6,4.6,2.06,4.6,4.6,4.6,4.6-2.06,4.6-4.6Z"/><circle class="cls-3" cx="122.47" cy="123.34" r="60.84"/></g></g></svg>