<?xml version="1.0" encoding="UTF-8"?><svg id="Calque_2" xmlns="http://www.w3.org/2000/svg" viewBox="0 0 244.94 244.94"><defs><style>.cls-1,.cls-2,.cls-3{fill:none;}.cls-2{stroke-width:4px;}.cls-2,.cls-3{stroke:#ed6b1e;}.cls-4{fill:#888788;}.cls-5{fill:#ed6b1e;}</style></defs><g id="Calque_3"><g id="Calque_4"><rect class="cls-2" x="2" y="2" width="240.94" height="240.94" rx="25.55" ry="25.55"/><path class="cls-4" d="M218.73,234.55c0,.28-.05.54-.14.8h-2.99c1.04-.27,2.09-.54,3.13-.8Z"/><path class="cls-3" d="M234.51,29.27v131.42c-1.15,0-2.3-.03-3.46,0-6.44.18-11.16,4.51-11.48,10.49-.32,6.05,3.84,11.02,10.06,11.95,1.61.24,3.25.31,4.87.46v33.85c-.28.77-.62,1.53-.83,2.32-2.05,7.91-7.03,12.84-14.96,14.79-1.04.27-2.09.54-3.13.8h-44.8c.05-4.78.18-9.57.13-14.35-.03-2.59-1.7-4.46-3.62-4.46-1.92,0-3.59,1.87-3.62,4.46-.05,4.78.08,9.57.13,14.35h-3.98c0-4.76.08-9.53,0-14.29-.04-2.58-1.58-4.4-3.52-4.54-1.96-.14-3.8,1.62-4.11,4.09-.14,1.13-.02,2.3-.04,3.45-.09,3.77-.19,7.53-.28,11.3h-2.99c-.02-.99-.06-1.97-.07-2.96,0-3.95.07-7.9-.04-11.84-.06-2.26-1.44-3.66-3.64-4-2.01-.3-3.84,1.53-4.13,4-.12.97-.02,1.97-.02,2.96-.02,3.95-.05,7.89-.07,11.84h-2.99c-.1-4.59-.14-9.18-.31-13.76-.12-3.18-1.87-5.23-4.13-5.07-2.08.15-3.5,2.07-3.53,5.03-.05,4.6,0,9.2.01,13.8h-3.98c.05-4.78.18-9.57.13-14.35-.03-2.59-1.7-4.46-3.62-4.46s-3.59,1.87-3.62,4.46c-.05,4.78.08,9.57.13,14.35h-3.98c0-4.76.08-9.53,0-14.29-.04-2.58-1.58-4.4-3.52-4.54-1.96-.14-3.8,1.62-4.11,4.09-.14,1.13-.02,2.3-.04,3.45-.09,3.77-.19,7.53-.28,11.3h-2.99c-.02-.99-.06-1.97-.07-2.96,0-3.95.07-7.9-.04-11.84-.06-2.26-1.44-3.66-3.64-4-2.01-.3-3.84,1.53-4.13,4-.12.97-.02,1.97-.02,2.96-.02,3.95-.05,7.89-.07,11.84h-2.99c-.1-4.59-.14-9.18-.31-13.76-.12-3.18-1.87-5.23-4.13-5.07-2.08.15-3.5,2.07-3.53,5.03-.05,4.6,0,9.2.01,13.8h-3.98c.05-4.78.18-9.57.13-14.35-.03-2.59-1.7-4.46-3.62-4.46-1.92,0-3.59,1.87-3.62,4.46-.05,4.78.08,9.57.13,14.35H29.42c-1.05-.27-2.09-.53-3.14-.8-9.71-2.53-15.61-9.98-15.74-20.17-.11-8.62-.04-17.24,0-25.86,0-1.63-.28-3.59.5-4.79.5-.77,2.71-.38,4.15-.58,5.53-.79,9.67-4.82,10.23-9.92.6-5.42-2.32-10.06-7.68-11.89-1.37-.47-2.93-.74-4.35-.59-2.61.26-3.16-.93-2.89-3.16.12-.98.02-1.99.02-2.98,0-30,0-60.01,0-90.01,0-10.61-.03-21.22.01-31.83.03-8.05,3.34-14.35,10.31-18.57,3.8-2.3,8.01-2.85,12.36-2.85,47.91.02,95.81.01,143.72.01.99,0,2,.07,2.98-.01,1.8-.15,2.22.75,2.19,2.36-.08,3.48,0,6.96-.03,10.44-.01,1.4.43,2.21,1.97,2.14,1.16-.05,2.33-.1,3.48.01,1.78.17,2.29-.6,2.24-2.29-.1-3.31.1-6.64-.07-9.94-.12-2.22.68-2.79,2.81-2.76,7.29.12,14.59-.11,21.88.1,5.64.17,10.52,2.31,14.53,6.48,3.13,3.25,4.42,7.25,5.62,11.37ZM122.43,179.77c30.76.69,55.68-25.37,56.55-54.45.97-32.13-24.72-56.48-51.67-58.27-38.32-2.54-60.73,28.84-61.36,54.62-.75,31.06,24.65,58.65,56.47,58.1ZM215.89,26.27c-2.03-.04-3.93,1.71-3.95,3.65-.01,1.76,2.07,3.91,3.85,3.97,1.91.07,3.77-1.8,3.79-3.8.02-2.13-1.57-3.78-3.69-3.82ZM215.98,220.43c2.08-.09,3.63-1.73,3.6-3.8-.02-1.96-1.82-3.84-3.67-3.85-1.92,0-4.15,2.34-3.98,4.2.18,1.93,2.07,3.55,4.04,3.46ZM85.19,26.31c.01-1.92-1.79-3.87-3.63-3.94-1.8-.07-3.94,1.83-4.06,3.6-.14,1.95,2.06,4.28,3.98,4.22,1.87-.06,3.7-1.98,3.71-3.88ZM33.09,30.11c.07-1.9-1.68-3.73-3.67-3.84-2.03-.11-3.79,1.41-3.98,3.44-.2,2.13,1.69,4.25,3.79,4.24,1.65,0,3.8-2.15,3.86-3.85ZM29.35,52.59c.09-1.77-1.81-3.93-3.58-4.08-1.97-.16-4.28,1.98-4.24,3.92.04,1.84,1.96,3.7,3.84,3.74,1.89.04,3.88-1.76,3.98-3.59ZM25.49,93.32c-1.82.02-3.87,1.94-3.95,3.71-.09,2.03,2.03,4.07,4.11,3.95,1.91-.11,3.76-2.05,3.69-3.87-.07-1.8-2.11-3.81-3.85-3.79ZM28.96,212.76c-1.88.09-3.66,2.18-3.53,4.14.15,2.08,1.93,3.66,4.01,3.53,2.03-.12,3.79-2.04,3.64-3.97-.13-1.67-2.49-3.79-4.12-3.71ZM51.52,30.19c1.83.03,3.72-1.81,3.82-3.72.11-2.14-1.88-4.2-3.94-4.08-1.73.1-3.71,2.24-3.67,3.97.04,1.86,1.97,3.8,3.79,3.83ZM66.55,22.38c-1.78-.04-3.81,1.89-3.93,3.73-.11,1.78,1.73,3.89,3.55,4.07,2,.2,4.12-1.84,4.1-3.94-.03-1.89-1.88-3.82-3.72-3.86ZM96.2,30.18c1.82.1,3.78-1.71,3.93-3.62.15-1.86-1.52-3.91-3.39-4.16-1.97-.26-4.24,1.79-4.25,3.85-.02,1.8,1.91,3.83,3.71,3.92ZM25.51,63.5c-1.83-.03-3.87,1.87-3.95,3.67-.08,1.83,1.71,3.79,3.6,3.94,2.11.16,4.23-1.77,4.19-3.83-.03-1.85-1.96-3.75-3.84-3.78ZM29.33,82c-.13-1.79-2.25-3.68-4.02-3.6-1.77.08-3.78,2.15-3.78,3.88,0,2.03,2.23,3.97,4.29,3.76,1.9-.2,3.64-2.2,3.5-4.04Z"/><path class="cls-4" d="M26.44,235.35c-.1-.26-.16-.52-.15-.8,1.05.27,2.09.53,3.14.8h-2.99Z"/><rect class="cls-1" x="55.34" y="60.48" width="141.07" height="141.07"/><circle class="cls-2" cx="122.48" cy="123.86" r="46.68"/><path class="cls-5" d="M161.41,124.47l-6.07,9.9-.89.11-5.75-10.22c-.05-.25-.13-.94-.06-1,.16-.15,2.9.14,3.04,0,.61-.61-.91-7.36-1.3-8.59-2.02-6.37-6.53-11.98-12.11-15.57-.81-.52-4.37-2.22-4.48-2.8-.08-.4,1.24-5.48,1.64-5.57.5-.11,4.07,1.76,4.78,2.16,9.6,5.46,16.93,16.35,17.85,27.47.05.55-.1,2.79,0,2.89.17.18,2.77-.3,3.35.3v.91ZM159.58,124.47c-.23-.19-2.19.33-2.6-.29-.22-.33-.34-4.41-.47-5.31-1.5-10.39-8.61-20.74-18.01-25.48-.44-.22-2.36-1.26-2.64-.86-.1.15-.69,3.47-.58,3.62.08.12,2.12.91,2.61,1.19,7.35,4.29,12.8,11.72,14.6,20.07.24,1.09,1.19,6.4.42,6.92-.58.39-2.8-.28-2.45.59,1.46,2.14,2.62,4.46,4.02,6.64.2.31.3,1.43.86.63.07-.98,4.58-7.44,4.24-7.72Z"/><path class="cls-5" d="M122.78,84.93c1.19,1.06,10.17,5.51,10.33,6.26.06.3-.11.4-.28.59l-9.96,5.88c-1.72.53-.64-3.28-1.16-3.31-1.1.41-2.23.19-3.31.34-8.38,1.16-16.6,6.45-20.99,13.68-.46.76-1.82,4.06-2.44,4.13-1.06.12-3.98-1.29-5.33-1.12-.6-.46,1.74-4.81,2.18-5.56,6.16-10.54,17.8-17.35,30.05-17.55.07-1.1-.25-2.33.3-3.35h.61ZM130.99,91.02l-7.91-4.26c.42,3.77-.92,2.48-3.5,2.74-11.18,1.11-21.01,7.08-26.74,16.75-.27.45-2.2,4.07-2,4.23.15.13,3.74.69,3.92.57s1.58-3.19,2.04-3.89c5.3-8.08,15.09-13.93,24.92-14.04,1.83-.02,1.32.89,1.37,2.31.02.46-.11.51.45.45l7.14-4.11c.3-.09.42-.65.31-.75Z"/><path class="cls-5" d="M122.09,102.31c.35-.1.66-.1.98.11l17.96,10.33.32.9-.16,21.16-18.58,10.64-18.69-10.49-.32-.9.16-21.16,18.33-10.59ZM127.95,106.53c-.04-.05-.87-.24-1.23-.45-1.12-.64-3.47-2.48-4.63-2.25l-16.34,9.54c1.09.59,4.89,3.33,5.86,3.15l16.02-9.24c.28-.11.44-.58.31-.75ZM115.18,124.16c.15-.16-.11-3.75,0-4.41l16.53-9.63.81-.86c-1.02-.18-2.35-1.65-3.35-1.4l-17.04,9.75c-.45.44-.45,4.14-.15,4.72.22.43,2.97,2.07,3.2,1.82ZM133.88,110.27l-16.57,9.79c1.29.6,4.31,3.1,5.55,2.84l16.03-9.23q.37-.3,0-.6c-.43-.34-4.73-2.81-5.02-2.79ZM116.39,125.99c-.94.2-5.33-2.23-5.63-2.73-.61-1,.3-4.31-.3-5.48-.34-.67-4.73-2.68-5.63-3.34v19.31l17.03,9.88v-19.31c0-.32-4.81-2.65-5.47-3.19v4.87ZM123.09,143.63l17.03-9.88v-19.31l-17.03,9.88v19.31Z"/><path class="cls-5" d="M123.08,159.44c-.31.31.73,3.77-1.01,3.3l-10.1-6.02-.11-.89,10.22-5.75c.25-.05.94-.13,1-.06.15.16-.14,2.9,0,3.04.39.39,5.52-.47,6.45-.7,8.9-2.16,16.58-8.77,20.03-17.23.25-.18,5.68,1.15,5.93,1.49s.1.6,0,.94c-.27.88-1.43,2.94-1.94,3.85-5.48,9.74-16.33,17.11-27.58,18.04-.55.05-2.79-.1-2.89,0ZM153.81,137.24c-.19-.14-3.05-.41-3.63-.59-3.47,8.58-12.04,15.17-21,17.17-1.12.25-6.64,1.27-7.17.47-.39-.58.28-2.8-.59-2.45l-7.27,4.24c-.82.57.56.79,1.04,1.07.62.37,6.43,4.11,6.68,3.81s-.46-2.42.5-2.7c11.91-.12,23.49-6.39,29.56-16.67.32-.54,2.21-4.12,1.88-4.35Z"/><path class="cls-5" d="M92.98,124.47c-.12.12.59,2.85.33,3.47,1.56,10.2,8.32,19.13,17.9,23.02-.16.96-.96,5.84-1.69,6.04-.5.14-4.05-1.76-4.77-2.17-10.66-6.1-17.86-17.96-17.85-30.36-.67-.09-3.19.31-3.35-.46-.11-.53,4.55-8.32,5.23-9.36.27-.41.77-1.54,1.3-1.43.65.14,5.29,9.07,6.2,10.25.43,1.75-2.98.69-3.3,1.01ZM94.49,123.25c.4-.36-4.2-7.06-4.26-8.21-2.06,2.26-3.09,5.28-4.86,7.76-.26.84,1.64.3,2.24.49.85.28.41,2.3.5,3.15.88,9.09,4.97,17.44,11.86,23.42.89.77,8.52,6.17,9.13,5.32.11-.15.7-3.48.59-3.63-.09-.12-2.12-.9-2.62-1.19-7.4-4.31-12.99-11.91-14.6-20.37-.2-1.07-.97-5.87-.57-6.47s2.4-.1,2.6-.29Z"/></g></g></svg>